{"title":"System Of A Down - Toxicity - CD remaster by MC Lurken 24-bit 96","uid":7459377,"size":1128995699,"categoryP":"audio","categoryS":"flac","magnet":"?xt=urn:btih:663d09296ac5850f933e3ee4f1f16f0bff87d195&amp;dn=System+Of+A+Down+-+Toxicity+-+CD+remaster+by+MC+Lurken+24-bit+96&amp;tr=udp%3A%2F%2Ftracker.openbittorrent.com%3A80&amp;tr=udp%3A%2F%2Fopen.demonii.com%3A1337&amp;tr=udp%3A%2F%2Ftracker.coppersurfer.tk%3A6969&amp;tr=udp%3A%2F%2Fexodus.desync.com%3A6969","seeders":1,"leechers":1,"uploader":"beavis39","files":-1,"time":1342765720,"description":"System Of A Down - Toxicity - CD remaster by MC Lurken (a.k.a. Beavis39)\n\n\n\n\n!!!!!!!!!!!!!THIS IS NOT AN OFFICIAL REMASTER, THIS IS A FAN RELEASE!!!!!!!!!!!!!!\n!!!!!!!!!!!!!THIS IS NOT AN OFFICIAL REMASTER, THIS IS A FAN RELEASE!!!!!!!!!!!!!!\n!!!!!!!!!!!!!THIS IS NOT AN OFFICIAL REMASTER, THIS IS A FAN RELEASE!!!!!!!!!!!!!!\n\n\n\n1 - Prison Song\n2 - Needles\n3 - Deer Dance\n4 - Jet Pilot\n5 - X\n6 - Chop Suey!\n7 - Bounce\n8 - Forest\n9 - Atwa\n10 - Science\n11 - Shimmy\n12 - Toxicity\n13 - Psycho\n14 - Aerials\n\n\nSetup:\n-HP G72-250US\n-Intel Core i3 M350 2.27GHz\n-8Gb PC3-10700 RAM\n-Win7 64-bit SP1\n-SB X-Fi Surround 5.1\n\nProcess:\n-16-bit/44.1kHz files ripped from the CD and joined in Wavelab 6\n-DC offset removed, this will yield a file with a bit depth of 18-24 bits\n-Resample to 384kHz in Wavelab w/crystal resampler ultra(slow) relax background priority\n-Create new 64-bit/384kHz master recording in Wavelab (0db gain)\n\nAs reported in Wavelab:\n-Original 16/44 - Apparent Bit Resolution = 16, Peak = -0.098db\n-DC Offset Removed - Apparent Bit Resolution = 20, Peak = -0.097db\n-Final Recording - Apparent Bit Resolution = 42, Peak = 0.637db\n\n-Resample 64-bit/384kHz to 64-bit/96kHz in Wavelab w/crystal resampler ultra(slow) relax background priority\n-Apply loudness maximizer (0.01db) and MBIT+ 24-bit Dither (Noise Shaping - Medium, Dither Amount - High, Auto-blanking - on) in Wavelab w/Izotope Ozone 5 VST Plugin\n-Flac encode level 0 with Trader's Little Helper\n-Tag and pic with xrecode II\n\n\nfoobar2000 1.1.13 / Dynamic Range Meter 1.1.1\nlog date: 2012-07-19 22:36:58\n\n--------------------------------------------------------------------------------\nAnalyzed: ? / ?\n--------------------------------------------------------------------------------\n\nDR         Peak         RMS     Duration Track\n--------------------------------------------------------------------------------\nDR6       -0.07 dB    -7.60 dB      3:21 ?-01 - Prison Song\nDR5       -0.10 dB    -7.16 dB      3:14 ?-02 - Needles\nDR6       -0.07 dB    -8.48 dB      2:55 ?-03 - Deer Dance\nDR6       -0.07 dB    -7.70 dB      2:06 ?-04 - Jet Pilot\nDR6       -0.07 dB    -7.19 dB      1:59 ?-05 - X\nDR6       -0.07 dB    -7.69 dB      3:30 ?-06 - Chop Suey!\nDR5       -0.07 dB    -6.53 dB      1:54 ?-07 - Bounce\nDR6       -0.07 dB    -7.09 dB      4:00 ?-08 - Forest\nDR6       -0.07 dB    -8.09 dB      2:56 ?-09 - Atwa\nDR6       -0.07 dB    -7.07 dB      2:43 ?-10 - Science\nDR6       -0.07 dB    -7.49 dB      1:51 ?-11 - Shimmy\nDR6       -0.07 dB    -7.56 dB      3:39 ?-12 - Toxicity\nDR7       -0.07 dB    -8.09 dB      3:46 ?-13 - Psycho\nDR6       -0.07 dB    -8.94 dB      6:11 ?-14 - Aerials\n--------------------------------------------------------------------------------\n\nNumber of tracks:  14\nOfficial DR value: DR6\n\nSamplerate:        96000 Hz\nChannels:          2\nBits per sample:   24\nBitrate:           4608 kbps\nCodec:             PCM\n\n\n\nenjoy :)","torrent":{"xt":"urn:btih:663d09296ac5850f933e3ee4f1f16f0bff87d195","amp;dn":"System+Of+A+Down+-+Toxicity+-+CD+remaster+by+MC+Lurken+24-bit+96","amp;tr":["udp%3A%2F%2Ftracker.openbittorrent.com%3A80","udp%3A%2F%2Fopen.demonii.com%3A1337","udp%3A%2F%2Ftracker.coppersurfer.tk%3A6969","udp%3A%2F%2Fexodus.desync.com%3A6969"],"infoHash":"663d09296ac5850f933e3ee4f1f16f0bff87d195","infoHashBuffer":{"type":"Buffer","data":[102,61,9,41,106,197,133,15,147,62,62,228,241,241,111,11,255,135,209,149]},"announce":[],"urlList":[]}}